<?xml version="1.0" standalone="no"?>
<!DOCTYPE svg PUBLIC "-//W3C//DTD SVG 20010904//EN"
 "http://www.w3.org/TR/2001/REC-SVG-20010904/DTD/svg10.dtd">
<svg version="1.0" xmlns="http://www.w3.org/2000/svg"
 width="256.000000pt" height="256.000000pt" viewBox="0 0 256.000000 256.000000"
 preserveAspectRatio="xMidYMid meet">
<metadata>
Created by potrace 1.11, written by Peter Selinger 2001-2013
</metadata>
<g transform="translate(0.000000,256.000000) scale(0.100000,-0.100000)"
fill="#000000" stroke="none">
<path d="M645 1913 c-15 -84 -26 -111 -46 -106 -11 3 -19 14 -19 24 0 11 -4
19 -8 19 -16 0 -35 -133 -36 -254 l-1 -122 -43 -72 c-52 -87 -145 -189 -211
-232 -74 -47 -168 -78 -243 -79 -34 -1 -38 -4 -38 -26 0 -25 1 -25 62 -19 34
3 79 12 101 20 22 8 41 14 42 14 1 0 2 -25 3 -55 0 -35 -4 -55 -11 -56 -7 0
-50 -2 -97 -3 -106 -4 -100 -2 -97 -28 4 -22 5 -22 233 -21 l229 0 0 -151 0
-151 189 -3 c120 -1 192 1 196 8 3 5 5 53 4 105 -3 114 -30 97 238 161 l190
45 61 -15 c145 -35 284 -68 307 -72 62 -12 60 -6 60 -125 l0 -109 194 0 194 0
0 128 c0 70 1 139 1 153 l1 27 208 0 c276 0 252 -2 252 26 0 24 -1 25 -87 24
-131 -1 -121 -6 -120 57 1 30 2 55 4 55 1 0 22 -6 45 -14 24 -8 69 -17 101
-20 55 -5 57 -5 57 18 0 21 -6 24 -59 29 -170 18 -315 122 -429 308 l-43 71
-4 141 c-4 153 -25 275 -39 225 -4 -15 -14 -29 -22 -32 -17 -7 -30 17 -39 74
-15 91 -27 81 -51 -37 -9 -45 -41 -51 -50 -9 -7 30 -8 29 -25 -29 -11 -33 -19
-89 -19 -125 l0 -65 -497 0 -497 0 -2 65 c-2 69 -24 170 -36 170 -5 0 -8 -9
-8 -20 0 -14 -7 -20 -23 -20 -19 0 -24 8 -35 53 -6 29 -12 60 -12 70 0 32 -18
17 -25 -20z m1133 -417 c3 -4 8 -117 9 -251 l2 -243 -504 0 c-460 0 -504 1
-507 16 -3 14 -2 164 3 449 0 25 5 32 22 35 45 6 968 0 975 -6z m-1232 -311
c0 -140 -4 -215 -11 -216 -5 0 -27 -1 -48 -2 l-37 -2 0 152 0 152 47 66 c26
36 48 65 48 65 1 0 1 -97 1 -215z m1519 149 l47 -65 0 -147 -1 -147 -45 -3
c-25 -2 -46 1 -47 5 -1 17 -4 423 -2 423 1 0 22 -30 48 -66z m-1659 -362 c-7
-7 -141 -6 -152 1 -5 3 -9 31 -8 63 1 48 5 61 23 73 12 9 48 37 79 62 l57 46
3 -120 c1 -66 0 -122 -2 -125z m1785 218 c19 -17 52 -42 74 -57 52 -36 50 -32
49 -99 -1 -68 -6 -71 -103 -66 l-59 4 -1 124 c0 68 1 124 3 124 2 0 19 -14 37
-30z"/>
</g>
</svg>
